<svg width="512" height="512" viewBox="0 0 512 512" fill="none" xmlns="http://www.w3.org/2000/svg">
  <defs>
    <linearGradient id="panelGlow" x1="106" y1="92" x2="412" y2="420" gradientUnits="userSpaceOnUse">
      <stop stop-color="#FFF8EF"/>
      <stop offset="1" stop-color="#F2EBDD"/>
    </linearGradient>
    <linearGradient id="accentSweep" x1="80" y1="64" x2="430" y2="448" gradientUnits="userSpaceOnUse">
      <stop stop-color="#FF6B3D"/>
      <stop offset="1" stop-color="#0FB8A4"/>
    </linearGradient>
    <filter id="shadow" x="36" y="44" width="440" height="424" filterUnits="userSpaceOnUse" color-interpolation-filters="sRGB">
      <feDropShadow dx="0" dy="18" stdDeviation="22" flood-color="#0F1720" flood-opacity="0.22"/>
    </filter>
  </defs>
  <rect width="512" height="512" rx="124" fill="#F4EEDF"/>
  <g opacity="0.8">
    <path d="M86 116H426" stroke="#D6CEC0" stroke-width="2"/>
    <path d="M86 396H426" stroke="#D6CEC0" stroke-width="2"/>
    <path d="M116 86V426" stroke="#D6CEC0" stroke-width="2"/>
    <path d="M396 86V426" stroke="#D6CEC0" stroke-width="2"/>
  </g>
  <path d="M128 128H176" stroke="#0F1720" stroke-width="8" stroke-linecap="round"/>
  <path d="M128 128V176" stroke="#0F1720" stroke-width="8" stroke-linecap="round"/>
  <path d="M336 128H384" stroke="#0F1720" stroke-width="8" stroke-linecap="round"/>
  <path d="M384 128V176" stroke="#0F1720" stroke-width="8" stroke-linecap="round"/>
  <path d="M128 336H176" stroke="#0F1720" stroke-width="8" stroke-linecap="round"/>
  <path d="M128 336V384" stroke="#0F1720" stroke-width="8" stroke-linecap="round"/>
  <path d="M336 384H384" stroke="#0F1720" stroke-width="8" stroke-linecap="round"/>
  <path d="M384 336V384" stroke="#0F1720" stroke-width="8" stroke-linecap="round"/>
  <g filter="url(#shadow)">
    <rect x="112" y="92" width="286" height="252" rx="28" transform="rotate(6 112 92)" fill="#0F1720"/>
    <rect x="126" y="110" width="258" height="224" rx="22" transform="rotate(6 126 110)" fill="url(#panelGlow)"/>
    <circle cx="158" cy="143" r="10" fill="#FF6B3D"/>
    <circle cx="191" cy="147" r="10" fill="#F4B942"/>
    <circle cx="224" cy="151" r="10" fill="#0FB8A4"/>
    <rect x="153" y="184" width="104" height="16" rx="8" transform="rotate(6 153 184)" fill="#0F1720"/>
    <rect x="153" y="216" width="192" height="18" rx="9" transform="rotate(6 153 216)" fill="#2A3440" fill-opacity="0.18"/>
    <rect x="153" y="252" width="168" height="18" rx="9" transform="rotate(6 153 252)" fill="#2A3440" fill-opacity="0.18"/>
    <rect x="153" y="289" width="118" height="28" rx="14" transform="rotate(6 153 289)" fill="#FF6B3D"/>
  </g>
  <rect x="254" y="276" width="114" height="90" rx="24" fill="#0F1720"/>
  <path d="M281 302H341" stroke="url(#accentSweep)" stroke-width="12" stroke-linecap="round"/>
  <path d="M281 328H357" stroke="#FFF8EF" stroke-width="12" stroke-linecap="round"/>
  <path d="M281 354H323" stroke="#FFF8EF" stroke-opacity="0.72" stroke-width="12" stroke-linecap="round"/>
</svg>
