<svg width="1100" height="280" viewBox="0 0 1100 280" fill="none" xmlns="http://www.w3.org/2000/svg">
  <defs>
    <linearGradient id="wordmarkAccent" x1="84" y1="32" x2="278" y2="228" gradientUnits="userSpaceOnUse">
      <stop stop-color="#FF6B3D"/>
      <stop offset="1" stop-color="#0FB8A4"/>
    </linearGradient>
  </defs>
  <rect width="1100" height="280" rx="36" fill="#F4EEDF"/>
  <g transform="translate(28 20)">
    <rect x="0" y="0" width="240" height="240" rx="56" fill="#F4EEDF"/>
    <path d="M30 48H70" stroke="#0F1720" stroke-width="6" stroke-linecap="round"/>
    <path d="M30 48V88" stroke="#0F1720" stroke-width="6" stroke-linecap="round"/>
    <path d="M170 48H210" stroke="#0F1720" stroke-width="6" stroke-linecap="round"/>
    <path d="M210 48V88" stroke="#0F1720" stroke-width="6" stroke-linecap="round"/>
    <path d="M30 152H70" stroke="#0F1720" stroke-width="6" stroke-linecap="round"/>
    <path d="M30 152V192" stroke="#0F1720" stroke-width="6" stroke-linecap="round"/>
    <path d="M170 192H210" stroke="#0F1720" stroke-width="6" stroke-linecap="round"/>
    <path d="M210 152V192" stroke="#0F1720" stroke-width="6" stroke-linecap="round"/>
    <rect x="70" y="34" width="126" height="112" rx="18" transform="rotate(6 70 34)" fill="#0F1720"/>
    <rect x="80" y="46" width="110" height="96" rx="14" transform="rotate(6 80 46)" fill="#FFF8EF"/>
    <circle cx="101" cy="66" r="5" fill="#FF6B3D"/>
    <circle cx="119" cy="68" r="5" fill="#F4B942"/>
    <circle cx="137" cy="70" r="5" fill="#0FB8A4"/>
    <rect x="99" y="86" width="40" height="8" rx="4" transform="rotate(6 99 86)" fill="#0F1720"/>
    <rect x="99" y="102" width="70" height="10" rx="5" transform="rotate(6 99 102)" fill="#2A3440" fill-opacity="0.18"/>
    <rect x="99" y="121" width="60" height="10" rx="5" transform="rotate(6 99 121)" fill="#2A3440" fill-opacity="0.18"/>
    <rect x="150" y="135" width="58" height="48" rx="14" fill="#0F1720"/>
    <path d="M164 150H196" stroke="url(#wordmarkAccent)" stroke-width="7" stroke-linecap="round"/>
    <path d="M164 165H204" stroke="#FFF8EF" stroke-width="7" stroke-linecap="round"/>
  </g>
  <text x="316" y="110" fill="#0F1720" font-size="64" font-weight="800" font-family="'Avenir Next', 'Segoe UI', sans-serif" letter-spacing="-0.05em">ui-style-extractor</text>
  <text x="318" y="156" fill="#405061" font-size="22" font-weight="500" font-family="'Avenir Next', 'Segoe UI', sans-serif" letter-spacing="0.01em">Extract UI systems into reusable Markdown guides for AI-generated pages.</text>
  <g transform="translate(318 188)">
    <rect x="0" y="0" width="118" height="34" rx="17" fill="#0F1720"/>
    <text x="59" y="22" text-anchor="middle" fill="#FFF8EF" font-size="14" font-weight="700" font-family="'IBM Plex Mono', 'SFMono-Regular', Consolas, monospace">CODEX</text>
    <rect x="132" y="0" width="160" height="34" rx="17" fill="#FFF8EF" stroke="#0F1720" stroke-opacity="0.12"/>
    <text x="212" y="22" text-anchor="middle" fill="#0F1720" font-size="14" font-weight="700" font-family="'IBM Plex Mono', 'SFMono-Regular', Consolas, monospace">CLAUDE CODE</text>
    <rect x="308" y="0" width="186" height="34" rx="17" fill="#FF6B3D"/>
    <text x="401" y="22" text-anchor="middle" fill="#FFF8EF" font-size="14" font-weight="700" font-family="'IBM Plex Mono', 'SFMono-Regular', Consolas, monospace">STYLE GUIDES</text>
    <rect x="510" y="0" width="182" height="34" rx="17" fill="#0FB8A4"/>
    <text x="601" y="22" text-anchor="middle" fill="#0F1720" font-size="14" font-weight="700" font-family="'IBM Plex Mono', 'SFMono-Regular', Consolas, monospace">DEMO VALIDATION</text>
  </g>
</svg>
